<?xml version="1.0" encoding="utf-8"?>
<!-- Generator: Adobe Illustrator 16.0.0, SVG Export Plug-In . SVG Version: 6.00 Build 0)  -->
<!DOCTYPE svg PUBLIC "-//W3C//DTD SVG 1.1//EN" "http://www.w3.org/Graphics/SVG/1.1/DTD/svg11.dtd">
<svg version="1.1" id="Layer_1" xmlns="http://www.w3.org/2000/svg" xmlns:xlink="http://www.w3.org/1999/xlink" x="0px" y="0px"
	 width="172px" height="172px" viewBox="0 0 172 172" enable-background="new 0 0 172 172" xml:space="preserve">
<g>
	<defs>
		<path id="SVGID_1_" d="M55.56,98.402V65.205c0-0.704,0.571-1.276,1.276-1.276h53.625c0.705,0,1.277,0.572,1.277,1.276v33.197
			c0,0.705-0.572,1.276-1.277,1.276H71.629l-8.408,8.408v-8.408h-6.385C56.131,99.679,55.56,99.107,55.56,98.402 M56.836,61.375
			c-2.111,0-3.83,1.719-3.83,3.83v33.197c0,2.111,1.719,3.83,3.83,3.83h3.83v12.02l12.02-12.02h37.775
			c2.112,0,3.831-1.719,3.831-3.83V65.205c0-2.111-1.719-3.83-3.831-3.83H56.836z"/>
	</defs>
	<clipPath id="SVGID_2_">
		<use xlink:href="#SVGID_1_"  overflow="visible"/>
	</clipPath>
	<rect x="48.006" y="56.375" clip-path="url(#SVGID_2_)" fill="#526378" width="71.286" height="62.877"/>
</g>
<g>
	<defs>
		<path id="SVGID_3_" d="M70.881,81.804c0,1.41,1.143,2.553,2.554,2.553c1.41,0,2.553-1.143,2.553-2.553
			c0-1.411-1.143-2.554-2.553-2.554C72.024,79.25,70.881,80.393,70.881,81.804"/>
	</defs>
	<clipPath id="SVGID_4_">
		<use xlink:href="#SVGID_3_"  overflow="visible"/>
	</clipPath>
	<rect x="65.881" y="74.25" clip-path="url(#SVGID_4_)" fill="#526378" width="15.107" height="15.107"/>
</g>
<g>
	<defs>
		<path id="SVGID_5_" d="M91.31,81.804c0,1.41,1.143,2.553,2.554,2.553s2.554-1.143,2.554-2.553c0-1.411-1.143-2.554-2.554-2.554
			S91.31,80.393,91.31,81.804"/>
	</defs>
	<clipPath id="SVGID_6_">
		<use xlink:href="#SVGID_5_"  overflow="visible"/>
	</clipPath>
	<rect x="86.31" y="74.25" clip-path="url(#SVGID_6_)" fill="#526378" width="15.107" height="15.107"/>
</g>
<g>
	<defs>
		<path id="SVGID_7_" d="M81.094,81.804c0,1.41,1.144,2.553,2.555,2.553s2.553-1.143,2.553-2.553c0-1.411-1.142-2.554-2.553-2.554
			S81.094,80.393,81.094,81.804"/>
	</defs>
	<clipPath id="SVGID_8_">
		<use xlink:href="#SVGID_7_"  overflow="visible"/>
	</clipPath>
	<rect x="76.095" y="74.25" clip-path="url(#SVGID_8_)" fill="#526378" width="15.107" height="15.107"/>
</g>
</svg>
