<?xml version="1.0" encoding="utf-8"?>
<!-- Generator: Adobe Illustrator 16.0.0, SVG Export Plug-In . SVG Version: 6.00 Build 0)  -->
<!DOCTYPE svg PUBLIC "-//W3C//DTD SVG 1.1//EN" "http://www.w3.org/Graphics/SVG/1.1/DTD/svg11.dtd">
<svg version="1.1" id="Layer_1" xmlns="http://www.w3.org/2000/svg" xmlns:xlink="http://www.w3.org/1999/xlink" x="0px" y="0px"
	 width="172px" height="172px" viewBox="0 0 172 172" enable-background="new 0 0 172 172" xml:space="preserve">
<g>
	<defs>
		<path id="SVGID_1_" d="M56.594,102.35l45.6-47.85l13.05,12.45l-45.6,47.85L56.594,102.35z M100.994,51.35l-47.55,49.95
			c-0.6,0.601-0.6,1.5,0,2.101l15.15,14.55c0.6,0.6,1.5,0.45,2.1,0L118.244,68c0.6-0.6,0.6-1.5,0-2.1l-15.15-14.55
			c-0.3-0.3-0.675-0.45-1.05-0.45S101.294,51.05,100.994,51.35"/>
	</defs>
	<clipPath id="SVGID_2_">
		<use xlink:href="#SVGID_1_"  overflow="visible"/>
	</clipPath>
	<rect x="47.994" y="45.9" clip-path="url(#SVGID_2_)" fill="#526378" width="75.7" height="77.446"/>
</g>
<rect x="92.694" y="62.161" transform="matrix(-0.7242 -0.6896 0.6896 -0.7242 122.3911 176.2691)" fill="#526378" width="7.5" height="2.999"/>
<rect x="86.506" y="68.788" transform="matrix(-0.724 -0.6898 0.6898 -0.724 107.1214 183.4353)" fill="#526378" width="7.501" height="3"/>
<rect x="80.315" y="75.203" transform="matrix(-0.7241 -0.6897 0.6897 -0.7241 92.0272 190.2246)" fill="#526378" width="7.5" height="3.001"/>
<rect x="74.019" y="81.728" transform="matrix(-0.7241 -0.6897 0.6897 -0.7241 76.6827 197.1295)" fill="#526378" width="7.5" height="2.999"/>
<rect x="67.935" y="88.245" transform="matrix(-0.7241 -0.6897 0.6897 -0.7241 61.687 204.1705)" fill="#526378" width="7.501" height="3.001"/>
<rect x="61.64" y="94.772" transform="matrix(-0.7241 -0.6897 0.6897 -0.7241 46.3332 211.0805)" fill="#526378" width="7.5" height="3"/>
</svg>
